<?xml version="1.0" encoding="utf-8"?> <!-- Generator: IcoMoon.io --> <!DOCTYPE svg PUBLIC "-//W3C//DTD SVG 1.1//EN" "http://www.w3.org/Graphics/SVG/1.1/DTD/svg11.dtd"> <svg version="1.1" id="Layer_1" xmlns="http://www.w3.org/2000/svg" xmlns:xlink="http://www.w3.org/1999/xlink" x="0px" y="0px" width="48px" height="48px" viewBox="0 0 48 48" enable-background="new 0 0 16 16" xml:space="preserve" fill="#000000"> <path d="M 39.00,36.00l-0.54,0.00 c-0.054-0.147-0.087-0.30-0.147-0.441 C 37.317,33.147, 36.00,31.344, 33.00,30.513L33.00,27.00 c0.00-4.962-4.038-9.00-9.00-9.00S 15.00,22.038, 15.00,27.00l0.00,3.507 c-3.00,0.831-4.317,2.634-5.313,5.037 c-0.03,0.069-0.045,0.147-0.069,0.216C 4.131,34.656,0.00,29.811,0.00,24.00L0.00,21.00 c0.00-6.627, 5.373-12.00, 12.00-12.00c 1.14,0.00, 2.223,0.21, 3.267,0.507 C 16.416,4.077, 21.228,0.00, 27.00,0.00c 6.627,0.00, 12.00,5.373, 12.00,12.00c0.00,1.059-0.183,2.067-0.438,3.045C 38.709,15.036, 38.85,15.00, 39.00,15.00c 4.971,0.00, 9.00,4.032, 9.00,9.00l0.00,3.00 C 48.00,31.971, 43.971,36.00, 39.00,36.00z M 18.00,36.00l3.006,0.00 L21.006,27.00 c0.00-1.659, 1.341-3.00, 3.00-3.00c 1.662,0.00, 3.003,1.341, 3.003,3.00l0.00,9.00 l2.994,0.00 c 1.212,0.00, 2.31,0.732, 2.772,1.851c 0.117,0.282, 0.186,0.567, 0.216,0.861c 0.081,0.879-0.222,1.764-0.867,2.409l-6.003,6.00 C 25.536,47.706, 24.768,48.00, 24.00,48.00s-1.536-0.294-2.121-0.879l-6.00-6.00c-0.639-0.645-0.942-1.53-0.861-2.409 c 0.024-0.294, 0.093-0.579, 0.21-0.861C 15.693,36.732, 16.788,36.00, 18.00,36.00z" style="fill:#5A5A5A"></path></svg>